<svg xmlns="http://www.w3.org/2000/svg" width="550.795" height="432.769" viewBox="0 0 550.795 432.769">
  <g id="black-back-closed-envelope-shape" transform="translate(0 -59.013)">
    <g id="Group_35" data-name="Group 35">
      <path id="Path_108" data-name="Path 108" d="M501.613,491.782a47.075,47.075,0,0,0,32.229-12.16L377.793,323.567c-3.744,2.681-7.373,5.288-10.8,7.767q-17.517,12.906-28.434,20.129t-29.045,14.755q-18.141,7.536-33.813,7.528h-.612q-15.68,0-33.813-7.528T212.23,351.463q-10.915-7.217-28.434-20.129c-3.256-2.387-6.867-5.006-10.771-7.809L16.946,479.622a47.088,47.088,0,0,0,32.234,12.16Z" fill="#ef328e"/>
      <path id="Path_109" data-name="Path 109" d="M31.047,225.3A162.954,162.954,0,0,1,0,198.555V435.98L137.541,298.439Q96.267,269.624,31.047,225.3Z" fill="#ef328e"/>
      <path id="Path_110" data-name="Path 110" d="M520.059,225.3q-62.8,42.5-106.75,73.195L550.8,435.986V198.555A169.63,169.63,0,0,1,520.059,225.3Z" fill="#ef328e"/>
      <path id="Path_111" data-name="Path 111" d="M501.613,59.013H49.181q-23.676,0-36.42,15.979Q0,90.973.006,114.949q0,19.36,16.9,41.959T52.87,192.4q10.448,7.382,63.012,43.8C134.8,249.314,151.25,260.74,165.387,270.6c12.05,8.4,22.442,15.667,31.022,21.7.985.691,2.534,1.8,4.59,3.269,2.215,1.591,5.018,3.61,8.476,6.107q9.988,7.224,16.6,11.683t15.985,9.988a93.248,93.248,0,0,0,17.675,8.3,48.906,48.906,0,0,0,15.367,2.766h.612a48.923,48.923,0,0,0,15.368-2.766,93.039,93.039,0,0,0,17.674-8.3q9.372-5.535,15.986-9.988t16.6-11.683c3.451-2.5,6.254-4.517,8.469-6.1,2.057-1.476,3.605-2.577,4.6-3.274,6.684-4.651,17.1-11.892,31.1-21.616q38.223-26.558,112.742-78.281a146.193,146.193,0,0,0,37.5-37.8q15.038-22.123,15.051-46.408a47.159,47.159,0,0,0-14.6-34.737Q521.593,59.016,501.613,59.013Z" fill="#ef328e"/>
    </g>
  </g>
</svg>
