<svg xmlns="http://www.w3.org/2000/svg" width="438.53" height="438.537" viewBox="0 0 438.53 438.537">
  <g id="linkedin-sign" transform="translate(-0.003)">
    <path id="Path_112" data-name="Path 112" d="M414.41,24.123Q390.295,0,356.315,0H82.228q-33.972,0-58.1,24.123T0,82.225V356.309q0,33.971,24.123,58.1t58.1,24.126H356.312q33.972,0,58.1-24.126t24.126-58.1V82.225Q438.532,48.252,414.41,24.123ZM133.618,367.157H67.666V169.016h65.952V367.157Zm-5.992-234.825q-10.276,9.851-27.124,9.851h-.288q-16.272,0-26.407-9.851a32.664,32.664,0,0,1-10.138-24.41q0-14.846,10.421-24.556t26.98-9.708q16.559,0,26.553,9.708T137.9,107.922A32.466,32.466,0,0,1,127.626,132.332ZM370.873,367.157H304.921V261.237q0-44.818-33.116-44.823-12.561,0-21.128,6.995A43.938,43.938,0,0,0,237.83,240.4q-2,5.133-2,15.981V367.156H169.879q.856-179.293,0-198.142h65.952v27.974q20.8-32.521,59.1-32.544,34.26,0,55.1,22.554t20.841,66.519v113.64h0Z" fill="#ef328e"/>
  </g>
</svg>
